<svg width="271" height="104" viewBox="0 0 271 104" fill="none" xmlns="http://www.w3.org/2000/svg">
<path d="M59.4644 0C56.9995 0 54.7108 1.29876 53.4197 3.43382L39.5078 24.4241C39.0545 25.116 39.2384 26.0485 39.9192 26.5091C40.471 26.8829 41.2009 26.8367 41.7035 26.3973L55.3974 14.3269C55.6249 14.1188 55.9755 14.14 56.1804 14.3712C56.2733 14.4772 56.3227 14.614 56.3227 14.7547V52.5461C56.3227 52.8581 56.0742 53.1087 55.7669 53.1087C55.602 53.1087 55.4467 53.0355 55.3423 52.9064L13.9479 2.55129C12.5998 0.934576 10.6202 0.00192853 8.53637 0H7.08963C3.17411 0 0 3.22572 0 7.20487V60.431C0 64.4103 3.17411 67.6359 7.08963 67.6359C9.5546 67.6359 11.8432 66.3373 13.1345 64.2022L27.0465 43.2119C27.4996 42.52 27.3156 41.5875 26.6348 41.1269C26.0831 40.7531 25.3531 40.7993 24.8508 41.2387L11.1568 53.3091C10.9293 53.5172 10.5785 53.4959 10.3737 53.2647C10.2808 53.1587 10.2315 53.022 10.2334 52.8812V15.0803C10.2334 14.7682 10.4818 14.5176 10.789 14.5176C10.952 14.5176 11.1094 14.5909 11.2137 14.72L52.6025 65.0846C53.9505 66.7014 55.9302 67.6341 58.014 67.6359H59.4607C63.3762 67.638 66.5523 64.4141 66.556 60.4351V7.20487C66.556 3.22572 63.3799 0 59.4644 0Z" fill="black"/>
<path d="M112.714 10.3811C107.667 10.3811 103.997 11.5762 100.879 14.333L95.3729 19.1114C94.914 19.48 93.9962 19.7554 93.3551 19.2025C92.7119 18.6516 92.621 17.9163 93.1711 17.181L96.107 12.7693C96.5659 12.1253 96.1999 11.2988 95.3729 11.2988H88.3081C87.4831 11.2988 86.8402 11.9428 86.8402 12.7693V55.7842C86.8402 56.6107 87.4831 57.2548 88.3081 57.2548H95.6481C96.4731 57.2548 97.116 56.6107 97.116 55.7842V31.5198C97.116 20.3995 106.383 18.6535 109.869 18.6535C117.3 18.6535 119.961 23.9847 119.961 28.0277V55.7842C119.961 56.6107 120.603 57.2548 121.429 57.2548H128.768C129.593 57.2548 130.236 56.6107 130.236 55.7842V27.1083C130.236 16.8143 123.54 10.3811 112.714 10.3811Z" fill="black"/>
<path d="M159.339 9.73706C145.118 9.73706 136.035 18.4692 136.035 30.3248V36.8513C136.035 49.3509 145.118 57.8989 159.339 57.8989C171.907 57.8989 180.715 51.3726 181.633 42.5493C181.726 41.6296 181.083 40.9875 180.165 40.9875H173.009C172.366 40.9875 171.816 41.356 171.632 41.9981C170.714 44.9393 166.403 49.3509 159.339 49.3509C152.274 49.3509 145.668 44.204 145.759 36.8513L145.852 28.672C145.943 22.5142 152.367 18.2868 159.339 18.2868C165.67 18.2868 171.816 21.872 172.457 27.7544C172.51 28.4345 172.044 29.0481 171.375 29.1774L150.804 33.1768C149.979 33.3609 149.336 34.0962 149.336 35.0139V35.1051C149.336 35.9316 150.161 36.6669 151.354 36.6669H180.897C181.709 36.6669 182.365 36.0077 182.365 35.1963V29.4073C182.365 18.4711 172.914 9.73896 159.337 9.73896L159.339 9.73706Z" fill="black"/>
<path d="M210.551 9.87764C199.083 9.87764 189.175 16.5863 189.175 25.4097C189.175 26.145 189.818 26.6959 190.643 26.6959H198.074C198.808 26.6959 199.358 26.145 199.45 25.4097C200.185 21.3666 205.047 18.4255 210.276 18.4255C216.514 18.4255 220.736 22.2862 220.736 28.9038V36.9007C220.736 45.0799 214.68 49.2161 207.156 49.2161C201.285 49.2161 197.89 47.0102 197.89 43.4249C197.89 40.2996 199.541 37.6339 206.33 36.0722L216.146 33.4065C217.155 33.131 217.523 32.3027 217.339 31.385C217.248 30.6497 216.423 30.2812 215.687 30.2812H205.504C196.881 30.2812 188.164 35.7948 188.164 43.8829V45.1691C188.164 53.4415 195.963 57.7601 204.862 57.7601C210.549 57.7601 215.412 55.5542 218.439 52.9818L222.936 49.1212C223.67 48.4771 224.404 48.4771 225.045 49.1212C225.595 49.6721 225.411 50.5003 224.952 51.1427L222.2 55.463C221.741 56.1071 222.107 56.9336 222.934 56.9336H229.54C230.365 56.9336 231.008 56.2895 231.008 55.463V27.6136C231.008 16.953 223.393 9.87573 210.548 9.87573L210.551 9.87764Z" fill="black"/>
<path d="M269.01 10.8401H258.733C255.156 10.8401 251.668 13.0459 249.191 15.1606L245.156 18.6527C244.697 19.0213 243.87 19.2967 243.32 18.837C242.677 18.3772 242.402 17.4576 242.954 16.7223L245.89 12.3106C246.349 11.6666 245.983 10.8401 245.156 10.8401H238.275C237.45 10.8401 236.807 11.4842 236.807 12.3106V55.3254C236.807 56.1518 237.45 56.7959 238.275 56.7959H245.799C246.623 56.7959 247.266 56.1518 247.266 55.3254V33.2671C247.266 23.7997 251.12 19.5722 259.47 19.5722H269.01C269.835 19.5722 270.478 18.9282 270.478 18.1017V12.3106C270.478 11.4842 269.835 10.8401 269.01 10.8401Z" fill="black"/>
<path d="M0.000244141 80.6827C0.000244141 80.3542 0.266535 80.0879 0.595021 80.0879H2.35854C2.68703 80.0879 2.95332 80.3542 2.95332 80.6827V89.7563C2.95332 90.0847 3.21961 90.351 3.54809 90.351H14.8163C15.1448 90.351 15.4111 90.0847 15.4111 89.7563V80.6827C15.4111 80.3542 15.6774 80.0879 16.0059 80.0879H17.7855C18.114 80.0879 18.3803 80.3542 18.3803 80.6827V102.73C18.3803 103.059 18.114 103.325 17.7855 103.325H16.0059C15.6774 103.325 15.4111 103.059 15.4111 102.73V93.56C15.4111 93.2315 15.1448 92.9652 14.8163 92.9652H3.54809C3.21961 92.9652 2.95332 93.2315 2.95332 93.56V102.73C2.95332 103.059 2.68703 103.325 2.35854 103.325H0.595021C0.266534 103.325 0.000244141 103.059 0.000244141 102.73V80.6827Z" fill="black"/>
<path d="M21.3541 91.7065C21.3541 83.993 26.05 79.636 32.9405 79.636C39.831 79.636 44.5269 83.993 44.5269 91.7065C44.5269 99.42 39.831 103.777 32.9405 103.777C26.05 103.777 21.3541 99.42 21.3541 91.7065ZM24.3717 91.7065C24.3717 97.774 27.7605 101.227 32.9405 101.227C38.1205 101.227 41.5092 97.774 41.5092 91.7065C41.5092 85.639 38.1205 82.1856 32.9405 82.1856C27.7605 82.1856 24.3717 85.639 24.3717 91.7065Z" fill="black"/>
<path d="M47.5009 80.4891C47.5009 80.1606 47.7671 79.8943 48.0956 79.8943H49.8592C50.1876 79.8943 50.4539 80.1606 50.4539 80.4891V94.4983C50.4539 98.6616 52.6324 100.921 56.8765 100.921C61.1205 100.921 63.299 98.6616 63.299 94.4983V80.4891C63.299 80.1606 63.5653 79.8943 63.8938 79.8943H65.6734C66.0019 79.8943 66.2682 80.1606 66.2682 80.4891V94.5628C66.2682 100.001 63.186 103.519 56.8765 103.519C50.6314 103.519 47.5009 100.001 47.5009 94.5628V80.4891Z" fill="black"/>
<path d="M69.8389 85.978C69.8389 82.1212 72.9533 79.7168 78.4238 79.7168C83.8942 79.7168 87.3153 82.2019 87.5735 86.6396C87.5735 86.9069 87.3567 87.1237 87.0894 87.1237H85.3505C85.0323 87.1237 84.7738 86.8717 84.7334 86.5561C84.3267 83.3766 81.7513 82.1212 78.4399 82.1212C74.9543 82.1212 72.7274 83.4929 72.7274 85.9618C72.7274 88.4308 74.68 89.4474 77.8913 89.867L80.3602 90.2058C84.9754 90.8191 87.7994 92.6748 87.7994 96.8543C87.7994 101.114 84.572 103.696 79.0047 103.696C73.4374 103.696 69.5807 101.131 69.2418 96.5961C69.2418 96.3287 69.4586 96.112 69.7259 96.112H71.4787C71.7844 96.112 72.0374 96.3458 72.0906 96.6469C72.6817 99.9934 75.5353 101.292 78.9724 101.292C82.5387 101.292 84.927 99.8396 84.927 96.9834C84.927 94.224 82.7485 93.1589 79.5372 92.7394L77.0683 92.4005C72.4531 91.7873 69.8389 89.867 69.8389 85.978Z" fill="black"/>
<path d="M90.7734 80.6827C90.7734 80.3542 91.0397 80.0879 91.3682 80.0879H106.348C106.676 80.0879 106.943 80.3542 106.943 80.6827V81.9943C106.943 82.3228 106.676 82.5891 106.348 82.5891H94.3052C93.9767 82.5891 93.7104 82.8554 93.7104 83.1839V89.7401C93.7104 90.0686 93.9767 90.3349 94.3052 90.3349H104.734C105.063 90.3349 105.329 90.6012 105.329 90.9297V92.2413C105.329 92.5698 105.063 92.8361 104.734 92.8361H94.3052C93.9767 92.8361 93.7104 93.1024 93.7104 93.4309V100.229C93.7104 100.558 93.9767 100.824 94.3052 100.824H106.574C106.902 100.824 107.169 101.09 107.169 101.419V102.73C107.169 103.059 106.902 103.325 106.574 103.325H91.3682C91.0397 103.325 90.7734 103.059 90.7734 102.73V80.6827Z" fill="black"/>
<path d="M116.685 91.7065C116.685 83.993 121.381 79.636 128.272 79.636C135.162 79.636 139.858 83.993 139.858 91.7065C139.858 99.42 135.162 103.777 128.272 103.777C121.381 103.777 116.685 99.42 116.685 91.7065ZM119.703 91.7065C119.703 97.774 123.092 101.227 128.272 101.227C133.452 101.227 136.84 97.774 136.84 91.7065C136.84 85.639 133.452 82.1856 128.272 82.1856C123.092 82.1856 119.703 85.639 119.703 91.7065Z" fill="black"/>
<path d="M142.832 80.6827C142.832 80.3542 143.098 80.0879 143.427 80.0879H157.793C158.122 80.0879 158.388 80.3542 158.388 80.6827V81.9943C158.388 82.3228 158.122 82.5891 157.793 82.5891H146.364C146.035 82.5891 145.769 82.8554 145.769 83.1839V89.9499C145.769 90.2784 146.035 90.5447 146.364 90.5447H156.47C156.798 90.5447 157.065 90.811 157.065 91.1394V92.4511C157.065 92.7796 156.798 93.0459 156.47 93.0459H146.364C146.035 93.0459 145.769 93.3122 145.769 93.6407V102.73C145.769 103.059 145.503 103.325 145.174 103.325H143.427C143.098 103.325 142.832 103.059 142.832 102.73V80.6827Z" fill="black"/>
<path d="M168.501 85.9777C168.501 82.121 171.616 79.7166 177.086 79.7166C182.556 79.7166 185.977 82.2017 186.236 86.6393C186.236 86.9067 186.019 87.1234 185.752 87.1234H184.013C183.695 87.1234 183.436 86.8714 183.396 86.5559C182.989 83.3764 180.413 82.121 177.102 82.121C173.617 82.121 171.39 83.4926 171.39 85.9616C171.39 88.4305 173.342 89.4472 176.553 89.8667L179.022 90.2056C183.638 90.8188 186.462 92.6746 186.462 96.8541C186.462 101.114 183.234 103.696 177.667 103.696C172.1 103.696 168.243 101.13 167.904 96.5959C167.904 96.3285 168.121 96.1117 168.388 96.1117H170.141C170.447 96.1117 170.7 96.3456 170.753 96.6467C171.344 99.9931 174.197 101.292 177.635 101.292C181.201 101.292 183.589 99.8394 183.589 96.9831C183.589 94.2237 181.411 93.1587 178.199 92.7391L175.73 92.4002C171.115 91.787 168.501 89.8667 168.501 85.9777Z" fill="black"/>
<path d="M189.436 80.6824C189.436 80.3539 189.702 80.0876 190.03 80.0876H208.593C208.921 80.0876 209.187 80.3539 209.187 80.6824V82.0587C209.187 82.3871 208.921 82.6534 208.593 82.6534H201.391C201.062 82.6534 200.796 82.9197 200.796 83.2482V102.73C200.796 103.059 200.53 103.325 200.201 103.325H198.422C198.093 103.325 197.827 103.059 197.827 102.73V83.2482C197.827 82.9197 197.561 82.6534 197.232 82.6534H190.03C189.702 82.6534 189.436 82.3871 189.436 82.0587V80.6824Z" fill="black"/>
<path d="M217.515 80.4749C217.602 80.2421 217.824 80.0876 218.072 80.0876H221.054C221.303 80.0876 221.525 80.2419 221.612 80.4745L229.93 102.771C229.947 102.817 229.955 102.866 229.955 102.915C229.955 103.141 229.772 103.325 229.545 103.325H227.418C227.168 103.325 226.945 103.169 226.859 102.935L224.693 97.034C224.607 96.7999 224.384 96.6442 224.134 96.6442H214.912C214.662 96.6442 214.439 96.8004 214.354 97.0352L212.202 102.934C212.116 103.169 211.893 103.325 211.643 103.325H209.597C209.371 103.325 209.187 103.141 209.187 102.915C209.187 102.866 209.196 102.817 209.213 102.772L217.515 80.4749ZM215.645 93.2949C215.502 93.6831 215.79 94.0946 216.203 94.0946H222.844C223.257 94.0946 223.544 93.6837 223.402 93.2956L219.704 83.1782C219.678 83.1053 219.608 83.0569 219.531 83.0569C219.453 83.0569 219.384 83.1052 219.357 83.178L215.645 93.2949Z" fill="black"/>
<path d="M232.929 80.6824C232.929 80.3539 233.196 80.0876 233.524 80.0876H235.271C235.6 80.0876 235.866 80.3539 235.866 80.6824V90.0019C235.866 90.1054 235.95 90.1894 236.054 90.1894C236.099 90.1894 236.143 90.1728 236.178 90.1428L247.462 80.2355C247.57 80.1402 247.71 80.0876 247.854 80.0876H250.783C250.967 80.0876 251.116 80.2367 251.116 80.4205C251.116 80.5166 251.074 80.608 251.002 80.6712L239.151 91.0197C238.881 91.2555 238.879 91.6748 239.148 91.9127L251.358 102.741C251.43 102.805 251.471 102.895 251.471 102.991C251.471 103.175 251.321 103.325 251.137 103.325H248.066C247.92 103.325 247.78 103.272 247.671 103.175L236.178 92.9638C236.143 92.9334 236.099 92.9166 236.053 92.9166C235.95 92.9166 235.866 93.0003 235.866 93.1037V102.73C235.866 103.059 235.6 103.325 235.271 103.325H233.524C233.196 103.325 232.929 103.059 232.929 102.73V80.6824Z" fill="black"/>
<path d="M254.445 80.6824C254.445 80.3539 254.711 80.0876 255.039 80.0876H270.019C270.348 80.0876 270.614 80.3539 270.614 80.6824V81.9941C270.614 82.3226 270.348 82.5889 270.019 82.5889H257.976C257.648 82.5889 257.382 82.8552 257.382 83.1837V89.7399C257.382 90.0684 257.648 90.3346 257.976 90.3346H268.406C268.734 90.3346 269 90.6009 269 90.9294V92.2411C269 92.5696 268.734 92.8359 268.406 92.8359H257.976C257.648 92.8359 257.382 93.1022 257.382 93.4307V100.229C257.382 100.557 257.648 100.824 257.976 100.824H270.245C270.574 100.824 270.84 101.09 270.84 101.418V102.73C270.84 103.059 270.574 103.325 270.245 103.325H255.039C254.711 103.325 254.445 103.059 254.445 102.73V80.6824Z" fill="black"/>
</svg>
